<?xml version="1.0" standalone="no"?>
<!DOCTYPE svg PUBLIC "-//W3C//DTD SVG 20010904//EN"
 "http://www.w3.org/TR/2001/REC-SVG-20010904/DTD/svg10.dtd">
<svg version="1.0" xmlns="http://www.w3.org/2000/svg"
 width="700.000000pt" height="700.000000pt" viewBox="0 0 700.000000 700.000000"
 preserveAspectRatio="xMidYMid meet">
<metadata>
Created by potrace 1.14, written by Peter Selinger 2001-2017
</metadata>
<g transform="translate(0.000000,700.000000) scale(0.100000,-0.100000)"
fill="#000000" stroke="none">
<path d="M2235 4829 c-550 -34 -938 -333 -1114 -857 -121 -363 -115 -879 16
-1256 144 -415 429 -661 858 -742 80 -15 145 -19 325 -18 289 1 430 23 663
105 l87 31 0 250 c0 203 -2 249 -13 245 -41 -16 -190 -60 -274 -82 -162 -41
-271 -56 -413 -57 -236 -1 -361 43 -490 172 -161 161 -230 388 -230 756 0 264
33 432 118 604 62 127 171 240 282 293 106 50 219 71 345 64 130 -8 224 -33
423 -113 90 -36 164 -64 166 -62 2 3 171 431 181 459 17 47 -441 190 -655 204
-47 3 -103 7 -125 9 -22 1 -89 -1 -150 -5z"/>
<path d="M3320 4783 c0 -5 212 -635 472 -1400 l473 -1393 325 0 326 0 428
1263 c236 694 451 1324 477 1400 l48 137 -302 0 -302 0 -269 -848 c-250 -787
-355 -1153 -389 -1350 l-13 -77 -18 80 c-59 267 -145 564 -388 1333 l-272 862
-298 0 c-164 0 -298 -3 -298 -7z"/>
</g>
</svg>
