<svg width="24" height="24" viewBox="0 0 24 24" fill="none" xmlns="http://www.w3.org/2000/svg">
<path fill-rule="evenodd" clip-rule="evenodd" d="M11.2415 3.5053C11.5841 2.83105 12.4189 2.83225 12.7602 3.50479L12.7606 3.50548L20.8769 19.4682L20.8772 19.4687C21.2737 20.252 20.684 21.0002 20.116 21.0002H3.88297C3.31534 21.0002 2.72615 20.2519 3.12419 19.4698C3.13065 19.4571 3.13682 19.4443 3.14271 19.4314L11.2413 3.50553L11.2415 3.5053ZM1.3406 18.563C1.3328 18.5783 1.32542 18.5938 1.31846 18.6094C0.391828 20.5097 1.61523 23.0002 3.88297 23.0002H20.116C22.4038 23.0002 23.626 20.4688 22.661 18.5643L22.6604 18.563L14.5437 2.59971L14.5435 2.5992L14.5434 2.59902C13.4604 0.466329 10.5419 0.467675 9.4586 2.59897L9.45848 2.5992L1.3406 18.563ZM12.9999 9C12.9999 8.44772 12.5522 8 11.9999 8C11.4477 8 10.9999 8.44772 10.9999 9V14C10.9999 14.5523 11.4477 15 11.9999 15C12.5522 15 12.9999 14.5523 12.9999 14V9ZM12.9999 17.5C12.9999 16.9477 12.5522 16.5 11.9999 16.5C11.4477 16.5 10.9999 16.9477 10.9999 17.5V18C10.9999 18.5523 11.4477 19 11.9999 19C12.5522 19 12.9999 18.5523 12.9999 18V17.5Z" fill="white"/>
</svg>
