<svg width="17" height="17" viewBox="0 0 17 17" fill="none" xmlns="http://www.w3.org/2000/svg">
    <path d="M3.51517 3.72318C3.70002 3.53838 3.95069 3.43457 4.21207 3.43457C4.47345 3.43457 4.72412 3.53838 4.90897 3.72318L8.39447 7.20867L11.88 3.72318C12.0659 3.54362 12.3149 3.44426 12.5733 3.44651C12.8318 3.44876 13.079 3.55242 13.2618 3.73518C13.4445 3.91794 13.5482 4.16517 13.5504 4.42363C13.5527 4.68208 13.4533 4.93107 13.2738 5.11698L9.78828 8.60248L13.2738 12.088C13.4533 12.2739 13.5527 12.5229 13.5504 12.7813C13.5482 13.0398 13.4445 13.287 13.2618 13.4698C13.079 13.6525 12.8318 13.7562 12.5733 13.7584C12.3149 13.7607 12.0659 13.6613 11.88 13.4818L8.39447 9.99628L4.90897 13.4818C4.72306 13.6613 4.47407 13.7607 4.21562 13.7584C3.95717 13.7562 3.70993 13.6525 3.52717 13.4698C3.34441 13.287 3.24075 13.0398 3.2385 12.7813C3.23626 12.5229 3.33561 12.2739 3.51517 12.088L7.00067 8.60248L3.51517 5.11698C3.33037 4.93213 3.22656 4.68145 3.22656 4.42008C3.22656 4.1587 3.33037 3.90802 3.51517 3.72318Z" fill="#7A7A7A"/>
</svg>
