<svg width="104" height="27" viewBox="0 0 104 27" fill="none" xmlns="http://www.w3.org/2000/svg">
<path d="M5.35254 11.0859C6.21973 11.0859 6.96387 11.2646 7.58496 11.6221C8.20605 11.9795 8.68359 12.4863 9.01758 13.1426C9.35156 13.7988 9.51855 14.584 9.51855 15.498V16.6055H3.02344C3.04688 17.5488 3.29883 18.2754 3.7793 18.7852C4.26562 19.2949 4.94531 19.5498 5.81836 19.5498C6.43945 19.5498 6.99609 19.4912 7.48828 19.374C7.98633 19.251 8.49902 19.0723 9.02637 18.8379V20.5166C8.54004 20.7451 8.04492 20.9121 7.54102 21.0176C7.03711 21.123 6.43359 21.1758 5.73047 21.1758C4.77539 21.1758 3.93457 20.9912 3.20801 20.6221C2.4873 20.2471 1.92188 19.6904 1.51172 18.9521C1.10742 18.2139 0.905273 17.2969 0.905273 16.2012C0.905273 15.1113 1.08984 14.1855 1.45898 13.4238C1.82812 12.6621 2.34668 12.082 3.01465 11.6836C3.68262 11.2852 4.46191 11.0859 5.35254 11.0859ZM5.35254 12.6416C4.70215 12.6416 4.1748 12.8525 3.77051 13.2744C3.37207 13.6963 3.1377 14.3145 3.06738 15.1289H7.49707C7.49121 14.6426 7.40918 14.2119 7.25098 13.8369C7.09863 13.4619 6.86426 13.1689 6.54785 12.958C6.2373 12.7471 5.83887 12.6416 5.35254 12.6416ZM15.6621 11.0859C16.8926 11.0859 17.8213 11.3584 18.4482 11.9033C19.0811 12.4482 19.3975 13.2979 19.3975 14.4521V21H17.9297L17.5342 19.6201H17.4639C17.1885 19.9717 16.9043 20.2617 16.6113 20.4902C16.3184 20.7188 15.9785 20.8887 15.5918 21C15.2109 21.1172 14.7451 21.1758 14.1943 21.1758C13.6143 21.1758 13.0957 21.0703 12.6387 20.8594C12.1816 20.6426 11.8213 20.3145 11.5576 19.875C11.2939 19.4355 11.1621 18.8789 11.1621 18.2051C11.1621 17.2031 11.5342 16.4502 12.2783 15.9463C13.0283 15.4424 14.1592 15.1641 15.6709 15.1113L17.3584 15.0498V14.54C17.3584 13.8662 17.2002 13.3857 16.8838 13.0986C16.5732 12.8115 16.1338 12.668 15.5654 12.668C15.0791 12.668 14.6074 12.7383 14.1504 12.8789C13.6934 13.0195 13.248 13.1924 12.8145 13.3975L12.1465 11.9385C12.6211 11.6865 13.1602 11.4814 13.7637 11.3232C14.373 11.165 15.0059 11.0859 15.6621 11.0859ZM17.3496 16.3506L16.0928 16.3945C15.0615 16.4297 14.3379 16.6055 13.9219 16.9219C13.5059 17.2383 13.2979 17.6719 13.2979 18.2227C13.2979 18.7031 13.4414 19.0547 13.7285 19.2773C14.0156 19.4941 14.3936 19.6025 14.8623 19.6025C15.5771 19.6025 16.1689 19.4004 16.6377 18.9961C17.1123 18.5859 17.3496 17.9854 17.3496 17.1943V16.3506ZM28.8281 18.2227C28.8281 18.8613 28.6729 19.4004 28.3623 19.8398C28.0518 20.2793 27.5977 20.6133 27 20.8418C26.4082 21.0645 25.6816 21.1758 24.8203 21.1758C24.1406 21.1758 23.5547 21.126 23.0625 21.0264C22.5762 20.9326 22.1162 20.7861 21.6826 20.5869V18.8027C22.1455 19.0195 22.6641 19.207 23.2383 19.3652C23.8184 19.5234 24.3662 19.6025 24.8818 19.6025C25.5615 19.6025 26.0508 19.4971 26.3496 19.2861C26.6484 19.0693 26.7979 18.7822 26.7979 18.4248C26.7979 18.2139 26.7363 18.0264 26.6133 17.8623C26.4961 17.6924 26.2734 17.5195 25.9453 17.3438C25.623 17.1621 25.1484 16.9453 24.5215 16.6934C23.9062 16.4473 23.3877 16.2012 22.9658 15.9551C22.5439 15.709 22.2246 15.4131 22.0078 15.0674C21.791 14.7158 21.6826 14.2676 21.6826 13.7227C21.6826 12.8613 22.0225 12.208 22.7021 11.7627C23.3877 11.3115 24.293 11.0859 25.418 11.0859C26.0156 11.0859 26.5781 11.1475 27.1055 11.2705C27.6387 11.3877 28.1602 11.5605 28.6699 11.7891L28.0195 13.3447C27.5801 13.1514 27.1377 12.9932 26.6924 12.8701C26.2529 12.7412 25.8047 12.6768 25.3477 12.6768C24.8145 12.6768 24.4072 12.7588 24.126 12.9229C23.8506 13.0869 23.7129 13.3213 23.7129 13.626C23.7129 13.8545 23.7803 14.0479 23.915 14.2061C24.0498 14.3643 24.2812 14.5225 24.6094 14.6807C24.9434 14.8389 25.4062 15.0352 25.998 15.2695C26.5781 15.4922 27.0791 15.7266 27.501 15.9727C27.9287 16.2129 28.2568 16.5088 28.4854 16.8604C28.7139 17.2119 28.8281 17.666 28.8281 18.2227ZM29.5928 11.2705H31.8428L33.8379 16.8252C33.9258 17.0771 34.0049 17.3262 34.0752 17.5723C34.1514 17.8125 34.2158 18.0498 34.2686 18.2842C34.3271 18.5186 34.374 18.7529 34.4092 18.9873H34.4619C34.5205 18.6826 34.6025 18.3428 34.708 17.9678C34.8193 17.5869 34.9424 17.2061 35.0771 16.8252L36.9932 11.2705H39.2168L35.042 22.3359C34.8018 22.9688 34.5059 23.5078 34.1543 23.9531C33.8086 24.4043 33.3984 24.7441 32.9238 24.9727C32.4492 25.207 31.9072 25.3242 31.2979 25.3242C31.0049 25.3242 30.75 25.3066 30.5332 25.2715C30.3164 25.2422 30.1318 25.21 29.9795 25.1748V23.5225C30.1025 23.5518 30.2578 23.5781 30.4453 23.6016C30.6328 23.625 30.8262 23.6367 31.0254 23.6367C31.3945 23.6367 31.7139 23.5635 31.9834 23.417C32.2529 23.2705 32.4814 23.0625 32.6689 22.793C32.8564 22.5293 33.0117 22.2275 33.1348 21.8877L33.4775 20.9736L29.5928 11.2705ZM66.1504 20.1875C66.1504 19.8229 66.2389 19.5651 66.416 19.4141C66.5931 19.2578 66.8092 19.1797 67.0645 19.1797C67.3301 19.1797 67.554 19.2578 67.7363 19.4141C67.9186 19.5651 68.0098 19.8229 68.0098 20.1875C68.0098 20.5469 67.9186 20.8099 67.7363 20.9766C67.554 21.138 67.3301 21.2188 67.0645 21.2188C66.8092 21.2188 66.5931 21.138 66.416 20.9766C66.2389 20.8099 66.1504 20.5469 66.1504 20.1875ZM76.9966 20.9854L75.5684 16.3125C75.5049 16.1123 75.4438 15.917 75.3853 15.7266C75.3315 15.5312 75.2803 15.3457 75.2314 15.1699C75.1875 14.9893 75.146 14.8232 75.1069 14.6719C75.0728 14.5156 75.0435 14.3813 75.019 14.269H74.9678C74.9482 14.3813 74.9214 14.5156 74.8872 14.6719C74.853 14.8232 74.8115 14.9893 74.7627 15.1699C74.7188 15.3506 74.6699 15.541 74.6162 15.7412C74.5625 15.9365 74.5015 16.1343 74.4331 16.3345L72.939 20.9854H71.5693L69.3574 12.958H70.6172L71.7744 17.3892C71.8525 17.6821 71.9258 17.9727 71.9941 18.2607C72.0674 18.5439 72.1284 18.8125 72.1772 19.0664C72.231 19.3154 72.27 19.5327 72.2944 19.7183H72.353C72.3823 19.5962 72.4141 19.4497 72.4482 19.2788C72.4873 19.1079 72.5288 18.9272 72.5728 18.7368C72.6216 18.5415 72.6729 18.3486 72.7266 18.1582C72.7803 17.9629 72.834 17.7798 72.8877 17.6089L74.3672 12.958H75.6782L77.1064 17.6016C77.1797 17.8359 77.2505 18.0801 77.3188 18.334C77.3921 18.5879 77.458 18.8345 77.5166 19.0737C77.5752 19.3081 77.6167 19.5181 77.6411 19.7036H77.6997C77.7192 19.5376 77.7559 19.3325 77.8096 19.0884C77.8633 18.8442 77.9243 18.5757 77.9927 18.2827C78.0659 17.9897 78.1416 17.6919 78.2197 17.3892L79.3916 12.958H80.6294L78.4102 20.9854H76.9966ZM89.0156 16.9717C89.0156 17.6309 88.9302 18.2192 88.7593 18.7368C88.5884 19.2544 88.3418 19.6914 88.0195 20.0479C87.6973 20.4043 87.3066 20.6777 86.8477 20.8682C86.3936 21.0537 85.8784 21.1465 85.3022 21.1465C84.7651 21.1465 84.272 21.0537 83.8228 20.8682C83.3784 20.6777 82.9927 20.4043 82.6655 20.0479C82.3433 19.6914 82.0918 19.2544 81.9111 18.7368C81.7354 18.2192 81.6475 17.6309 81.6475 16.9717C81.6475 16.0928 81.7964 15.3457 82.0942 14.7305C82.3921 14.1104 82.8169 13.6392 83.3687 13.3169C83.9253 12.9897 84.5869 12.8262 85.3535 12.8262C86.0859 12.8262 86.7256 12.9897 87.2725 13.3169C87.8242 13.644 88.2515 14.1177 88.5542 14.7378C88.8618 15.353 89.0156 16.0977 89.0156 16.9717ZM82.9072 16.9717C82.9072 17.6162 82.9927 18.1753 83.1636 18.6489C83.3345 19.1226 83.5981 19.4888 83.9546 19.7476C84.311 20.0063 84.77 20.1357 85.3315 20.1357C85.8882 20.1357 86.3447 20.0063 86.7012 19.7476C87.0625 19.4888 87.3286 19.1226 87.4995 18.6489C87.6704 18.1753 87.7559 17.6162 87.7559 16.9717C87.7559 16.332 87.6704 15.7803 87.4995 15.3164C87.3286 14.8477 87.0649 14.4863 86.7085 14.2324C86.3521 13.9785 85.8906 13.8516 85.3242 13.8516C84.4893 13.8516 83.8765 14.1274 83.4858 14.6792C83.1001 15.231 82.9072 15.9951 82.9072 16.9717ZM94.7651 12.8262C94.9263 12.8262 95.0947 12.8359 95.2705 12.8555C95.4463 12.8701 95.6025 12.8921 95.7393 12.9214L95.5854 14.0493C95.4536 14.0151 95.3071 13.9883 95.146 13.9688C94.9849 13.9492 94.8335 13.9395 94.6919 13.9395C94.3696 13.9395 94.0645 14.0054 93.7764 14.1372C93.4932 14.2642 93.2441 14.4497 93.0293 14.6938C92.8145 14.9331 92.646 15.2236 92.5239 15.5654C92.4019 15.9023 92.3408 16.2783 92.3408 16.6934V21H91.1177V12.9727H92.1284L92.2603 14.4521H92.3115C92.4775 14.1543 92.6777 13.8833 92.9121 13.6392C93.1465 13.3901 93.4175 13.1924 93.7251 13.0459C94.0376 12.8994 94.3843 12.8262 94.7651 12.8262ZM98.4639 9.60352V15.5215C98.4639 15.7168 98.4565 15.9561 98.4419 16.2393C98.4272 16.5176 98.415 16.7642 98.4053 16.979H98.4565C98.5591 16.8521 98.708 16.6641 98.9033 16.415C99.1035 16.166 99.272 15.9658 99.4087 15.8145L102.075 12.9727H103.503L100.273 16.4004L103.737 21H102.272L99.438 17.1987L98.4639 18.0923V21H97.2554V9.60352H98.4639Z" fill="black"/>
<path d="M47.0781 9.03711C46.4987 9.03711 45.9844 9.15104 45.5352 9.37891C45.0924 9.60026 44.7181 9.92253 44.4121 10.3457C44.1126 10.7689 43.8848 11.2799 43.7285 11.8789C43.5723 12.4779 43.4941 13.1517 43.4941 13.9004C43.4941 14.9095 43.6178 15.7721 43.8652 16.4883C44.1191 17.1979 44.5098 17.7415 45.0371 18.1191C45.5645 18.4902 46.2448 18.6758 47.0781 18.6758C47.6576 18.6758 48.237 18.6107 48.8164 18.4805C49.4023 18.3503 50.0371 18.1647 50.7207 17.9238V20.4629C50.0892 20.7233 49.4674 20.9089 48.8555 21.0195C48.2435 21.1367 47.5566 21.1953 46.7949 21.1953C45.3236 21.1953 44.1126 20.8926 43.1621 20.2871C42.2181 19.6751 41.5182 18.8223 41.0625 17.7285C40.6068 16.6283 40.3789 15.3457 40.3789 13.8809C40.3789 12.8001 40.5254 11.8105 40.8184 10.9121C41.1113 10.0137 41.541 9.23568 42.1074 8.57812C42.6738 7.92057 43.3737 7.41276 44.207 7.05469C45.0404 6.69661 45.9974 6.51758 47.0781 6.51758C47.7878 6.51758 48.4974 6.60872 49.207 6.79102C49.9232 6.9668 50.6068 7.21094 51.2578 7.52344L50.2812 9.98438C49.7474 9.73047 49.2103 9.50911 48.6699 9.32031C48.1296 9.13151 47.599 9.03711 47.0781 9.03711ZM64.9688 6.72266L60.1152 21H56.8145L51.9707 6.72266H55.0273L57.7129 15.2188C57.7585 15.362 57.8333 15.6322 57.9375 16.0293C58.0417 16.4199 58.1458 16.8366 58.25 17.2793C58.3607 17.7155 58.4355 18.0768 58.4746 18.3633C58.5137 18.0768 58.582 17.7155 58.6797 17.2793C58.7839 16.8431 58.8848 16.4297 58.9824 16.0391C59.0866 15.6419 59.1615 15.3685 59.207 15.2188L61.9121 6.72266H64.9688Z" fill="#4EAB4F"/>
</svg>
