<svg width="17" height="17" viewBox="0 0 17 17" fill="none" xmlns="http://www.w3.org/2000/svg">
    <path d="M11.3438 2.9853C11.7029 2.62633 12.1899 2.42471 12.6976 2.4248C13.2054 2.4249 13.6923 2.62669 14.0513 2.9858C14.4103 3.3449 14.6119 3.8319 14.6118 4.33965C14.6117 4.8474 14.4099 5.33433 14.0508 5.6933L13.3178 6.4253L10.6088 3.7193L11.3428 2.9853H11.3438ZM9.90378 4.4263L3.94778 10.3803C3.767 10.5612 3.63074 10.7817 3.54978 11.0243L2.63578 13.7673C2.60658 13.8553 2.60244 13.9497 2.62381 14.04C2.64518 14.1302 2.69123 14.2127 2.7568 14.2783C2.82237 14.3439 2.90489 14.3899 2.99513 14.4113C3.08536 14.4326 3.17977 14.4285 3.26778 14.3993L6.01078 13.4853C6.25378 13.4053 6.47378 13.2683 6.65478 13.0873L12.6108 7.1333L9.90278 4.4263H9.90378Z" fill="#4EAB4F"/>
</svg>
