<svg width="22" height="22" viewBox="0 0 22 22" fill="none" xmlns="http://www.w3.org/2000/svg">
<g clip-path="url(#clip0_166_375)">
<path fill-rule="evenodd" clip-rule="evenodd" d="M7.89775 10.4376C7.8978 10.4372 7.89786 10.4368 7.89792 10.4364H7.89659L7.89775 10.4376ZM7.89775 10.4376C7.82484 10.9482 7.87177 11.4689 8.03483 11.9583C8.19801 12.448 8.47302 12.8931 8.83805 13.2581C9.20309 13.6231 9.64812 13.8982 10.1379 14.0613C10.6277 14.2245 11.1487 14.2714 11.6597 14.1982L7.89775 10.4376ZM10.7183 7.61473L14.4801 11.3779V11.3765C14.5533 10.8655 14.5064 10.3445 14.3432 9.8547C14.18 9.36493 13.905 8.9199 13.54 8.55486C13.1749 8.18983 12.7299 7.91482 12.2401 7.75164C11.7504 7.58846 11.2293 7.54158 10.7183 7.61473ZM2.73987 3.39946L18.6967 19.3563L19.6382 18.4148L3.68132 2.45801L2.73987 3.39946ZM12.7521 15.2905L14.8983 17.438C13.728 17.9493 12.4654 18.2154 11.1883 18.2199C4.53962 18.2199 0.550415 10.9063 0.550415 10.9063C0.550415 10.9063 1.79771 8.61652 4.06358 6.60197L6.80283 9.34122C6.5061 10.1712 6.45114 11.0684 6.64437 11.9283C6.83759 12.7883 7.27105 13.5757 7.89431 14.199C8.51756 14.8222 9.30499 15.2557 10.165 15.4489C11.0249 15.6422 11.9221 15.5872 12.7521 15.2905ZM11.1883 3.59277C9.91122 3.59717 8.64858 3.86327 7.47834 4.37466V4.37599L9.62321 6.52085C10.4532 6.22412 11.3503 6.16916 12.2103 6.36239C13.0703 6.55561 13.8577 6.98907 14.481 7.61233C15.1042 8.23558 15.5377 9.02301 15.7309 9.88298C15.9241 10.743 15.8692 11.6401 15.5724 12.4701L18.3144 15.212C20.5776 13.1948 21.8262 10.9063 21.8262 10.9063C21.8262 10.9063 17.837 3.59277 11.1883 3.59277Z" fill="#C4C4C4"/>
</g>
<defs>
<clipPath id="clip0_166_375">
<rect width="21.2758" height="21.2758" fill="white" transform="translate(0.550415 0.267578)"/>
</clipPath>
</defs>
</svg>
