<svg width="22" height="15" viewBox="0 0 22 15" fill="none" xmlns="http://www.w3.org/2000/svg">
<path fill-rule="evenodd" clip-rule="evenodd" d="M10.95 0.208496C4.30124 0.208496 0.312012 7.52208 0.312012 7.52208C0.312012 7.52208 4.30124 14.8357 10.95 14.8357C17.5987 14.8357 21.5879 7.52208 21.5879 7.52208C21.5879 7.52208 17.5987 0.208496 10.95 0.208496ZM14.2409 10.813C13.3681 11.6858 12.1843 12.1762 10.95 12.1762C9.71561 12.1762 8.53182 11.6858 7.65901 10.813C6.78619 9.94021 6.29585 8.75642 6.29585 7.52208C6.29585 6.28774 6.78619 5.10395 7.65901 4.23113C8.53182 3.35832 9.71561 2.86798 10.95 2.86798C12.1843 2.86798 13.3681 3.35832 14.2409 4.23113C15.1137 5.10395 15.604 6.28774 15.604 7.52208C15.604 8.75642 15.1137 9.94021 14.2409 10.813ZM13.301 9.87181C13.9244 9.24837 14.2747 8.40281 14.2747 7.52113C14.2747 6.63946 13.9244 5.7939 13.301 5.17046C12.6776 4.54702 11.832 4.19678 10.9503 4.19678C10.0687 4.19678 9.2231 4.54702 8.59966 5.17046C7.97622 5.7939 7.62598 6.63946 7.62598 7.52113C7.62598 8.40281 7.97622 9.24837 8.59966 9.87181C9.2231 10.4952 10.0687 10.8455 10.9503 10.8455C11.832 10.8455 12.6776 10.4952 13.301 9.87181Z" fill="#C4C4C4"/>
</svg>
