<svg width="27" height="27" viewBox="0 0 27 27" fill="none" xmlns="http://www.w3.org/2000/svg">
    <path id="plusIcon" fill-rule="evenodd" clip-rule="evenodd" d="M25.524 13.8785C25.524 20.236 20.3702 25.3897 14.0127 25.3897C7.65524 25.3897 2.50146 20.236 2.50146 13.8785C2.50146 7.52096 7.65524 2.36719 14.0127 2.36719C20.3702 2.36719 25.524 7.52096 25.524 13.8785ZM26.524 13.8785C26.524 20.7883 20.9225 26.3897 14.0127 26.3897C7.10296 26.3897 1.50146 20.7883 1.50146 13.8785C1.50146 6.96868 7.10296 1.36719 14.0127 1.36719C20.9225 1.36719 26.524 6.96868 26.524 13.8785ZM15.2481 12.9756C15.0731 12.9756 14.9312 12.8337 14.9312 12.6587V9.05813C14.9312 8.8831 14.7893 8.74121 14.6143 8.74121H13.4007C13.2257 8.74121 13.0838 8.8831 13.0838 9.05813V12.6587C13.0838 12.8337 12.9419 12.9756 12.7669 12.9756H9.25979C9.08476 12.9756 8.94287 13.1175 8.94287 13.2925V14.506C8.94287 14.681 9.08476 14.8229 9.25979 14.8229H12.7669C12.9419 14.8229 13.0838 14.9648 13.0838 15.1398V18.6989C13.0838 18.8739 13.2257 19.0158 13.4007 19.0158H14.6143C14.7893 19.0158 14.9312 18.8739 14.9312 18.6989V15.1398C14.9312 14.9648 15.0731 14.8229 15.2481 14.8229H18.7656C18.9406 14.8229 19.0825 14.681 19.0825 14.506V13.2925C19.0825 13.1175 18.9406 12.9756 18.7656 12.9756H15.2481Z" fill="#C4C4C4"/>
</svg>
